<?xml version="1.0" encoding="UTF-8"?>
<svg id="Capa_2" data-name="Capa 2" xmlns="http://www.w3.org/2000/svg" viewBox="0 0 496.67 816.38">
  <defs>
    <style>
      .cls-1 {
        fill: #f0b71a;
      }

      .cls-2 {
        font-family: MontserratRoman-ExtraBold, Montserrat;
        font-size: 88.18px;
        font-variation-settings: 'wght' 800;
        font-weight: 700;
      }

      .cls-2, .cls-3 {
        fill: #25274c;
      }
    </style>
  </defs>
  <g id="Capa_1-2" data-name="Capa 1">
    <g>
      <g>
        <path class="cls-3" d="m316.04,519.8c24.73-23.2,37.78-55.69,36.94-88.63l70.56-42.34,19.84-11.62,12.92,46.6-29.24,4.28c.37,11.88-.3,23.72-2.1,35.38l28.94,7.3-9.63,38.16-29.37-7.41c-4.11,10.97-9.16,21.59-15.25,31.7l24.44,18.19-23.5,31.57-24.68-18.37c-7.86,8.45-16.48,16.36-26.02,23.43l15.79,26.46-49.65,21.12v-27.49s0,0,0,0v-88.33Z"/>
        <path class="cls-3" d="m140.26,519.8c-24.73-23.2-37.78-55.69-36.94-88.63l-70.56-42.34-19.84-11.62L0,423.81l29.24,4.28c-.37,11.88.3,23.72,2.1,35.38l-28.94,7.3,9.63,38.16,29.37-7.41c4.11,10.97,9.16,21.59,15.25,31.7l-24.44,18.19,23.5,31.57,24.68-18.37c7.86,8.45,16.48,16.36,26.02,23.43l-15.79,26.46,49.65,21.12v-27.49s0,0,0,0v-88.33Z"/>
        <path class="cls-3" d="m446.38,127.02c-3.08-13.11-13.13-48.19-45.65-77.99-31.8-29.14-66.67-36.36-80.05-38.44v269.75l-94.27,62.85-94.27-62.85V10.6c-17.23,6.21-45.4,18.82-73.07,44.13C30.39,80.96,15.16,109.02,7.54,125.91c-.37,72.43-.74,144.86-1.11,217.28l76.78,46.07c49.85,29.91,80.34,83.77,80.34,141.9v126.28h125.7v-126.28c0-58.13,30.5-112,80.34-141.9l76.78-46.07V127.02Z"/>
        <polygon class="cls-1" points="243.18 0 178.65 112.76 210.91 112.76 178.65 204.82 220.4 204.82 202.53 289.29 267.14 173.08 229.55 173.5 262.46 85.94 222.78 86.18 243.18 0"/>
      </g>
      <text class="cls-2" transform="translate(19.71 793.54)"><tspan x="0" y="0">Luz Alerta</tspan></text>
    </g>
  </g>
</svg>